<?xml version="1.0" encoding="UTF-8" standalone="no"?>
<!-- Created with Inkscape (http://www.inkscape.org/) -->

<svg
   width="108.89048mm"
   height="59.389828mm"
   viewBox="0 0 108.89048 59.389828"
   version="1.1"
   id="svg1"
   inkscape:version="1.3 (0e150ed6c4, 2023-07-21)"
   sodipodi:docname="flecha_l.svg"
   xmlns:inkscape="http://www.inkscape.org/namespaces/inkscape"
   xmlns:sodipodi="http://sodipodi.sourceforge.net/DTD/sodipodi-0.dtd"
   xmlns="http://www.w3.org/2000/svg"
   xmlns:svg="http://www.w3.org/2000/svg">
  <sodipodi:namedview
     id="namedview1"
     pagecolor="#ffffff"
     bordercolor="#000000"
     borderopacity="0.25"
     inkscape:showpageshadow="2"
     inkscape:pageopacity="0.0"
     inkscape:pagecheckerboard="true"
     inkscape:deskcolor="#d1d1d1"
     inkscape:document-units="mm"
     inkscape:current-layer="layer1" />
  <defs
     id="defs1" />
  <g
     inkscape:label="Capa 1"
     inkscape:groupmode="layer"
     id="layer1"
     transform="translate(-2.9104169,-147.90209)">
    <g
       id="g48"
       transform="translate(73.312772,124.5654)">
      <path
         style="font-variation-settings:normal;opacity:1;vector-effect:none;fill:#000000;fill-opacity:0.159253;stroke:none;stroke-width:0.25;stroke-linecap:butt;stroke-linejoin:miter;stroke-miterlimit:4;stroke-dasharray:none;stroke-dashoffset:0;stroke-opacity:1;-inkscape-stroke:none;stop-color:#000000;stop-opacity:1"
         d="m 11.86537,74.653122 c 3.37094,-4.41507 6.02656,-8.11724 5.90139,-8.22703 -0.12517,-0.10979 -6.32963,-1.96828 -13.78769,-4.12997 -7.45806,-2.1617 -13.47072,-4.00938 -13.36146,-4.10596 0.10926,-0.0966 7.46147,-1.51381 16.33824,-3.14938 8.87677,-1.63558 17.72205,-3.27364 19.65618,-3.64015 l 3.5166,-0.66636 4.38194,-5.7227 c 3.49491,-4.56427 4.28109,-5.73827 3.88375,-5.79962 -0.52857,-0.0816 -108.572222,18.64957 -108.781812,18.85915 -0.0677,0.0677 0.10238,0.21056 0.37787,0.31754 2.25383,0.87522 74.952642,24.37313 75.297412,24.33783 0.24892,-0.0255 3.17683,-3.61921 6.57758,-8.07335 z"
         id="path7" />
      <path
         style="color:#000000;font-variation-settings:normal;opacity:1;vector-effect:none;fill:#000000;fill-opacity:0.159253;stroke:none;stroke-width:0.25;stroke-linecap:butt;stroke-linejoin:miter;stroke-miterlimit:4;stroke-dasharray:none;stroke-dashoffset:0;stroke-opacity:1;-inkscape-stroke:none;stop-color:#000000;stop-opacity:1"
         d="m 36.613281,40.5 c -0.601391,0.85942 -1.395359,1.943863 -2.896484,3.904297 l -4.150391,5.417969 -3.140625,0.595703 c -1.921677,0.36415 -10.774221,2.003202 -19.6503904,3.638672 -4.4406144,0.818195 -8.4995158,1.582698 -11.4648437,2.154296 -1.482664,0.2858 -2.6930999,0.52393 -3.5429688,0.697266 -0.4249344,0.08667 -0.7574733,0.157119 -0.9980469,0.210938 -0.1202867,0.02691 -0.2164663,0.04895 -0.2988281,0.07031 -0.041181,0.01068 -0.078034,0.0195 -0.1269531,0.03516 -0.02446,0.0078 -0.050019,0.01635 -0.095703,0.03516 -0.022842,0.0094 -0.051682,0.02077 -0.09375,0.04297 -0.042068,0.02219 -0.198365,0.137918 -0.199219,0.138672 -4.27e-4,3.78e-4 -0.210697,0.263242 -0.210937,0.263672 -2.41e-4,4.31e-4 -0.12104,0.376469 -0.121094,0.376953 -5.4e-5,4.84e-4 0.02135,0.349073 0.02148,0.34961 1.31e-4,5.36e-4 0.09148,0.235738 0.0918,0.236328 3.16e-4,5.89e-4 0.06485,0.107435 0.09375,0.144531 0.0289,0.0371 0.0549,0.06626 0.07813,0.08984 0.04645,0.04717 0.08148,0.07493 0.1113283,0.09766 0.1193988,0.09089 0.1631665,0.103742 0.2109375,0.126953 0.095542,0.04642 0.1718602,0.07619 0.2695313,0.113281 0.1953422,0.07417 0.4557608,0.164821 0.7949219,0.277344 0.6783222,0.225046 1.6563008,0.532946 2.8710937,0.90625 2.4295859,0.746608 5.80197489,1.749978 9.5351563,2.832031 3.7266442,1.080154 7.139988,2.084745 9.634766,2.832032 1.228549,0.368 2.222189,0.670015 2.929687,0.890625 -0.260678,0.384171 -0.538764,0.788349 -0.951172,1.363281 -1.060853,1.478919 -2.563622,3.504028 -4.24414,5.705078 -1.6950919,2.22015 -3.2728859,4.225644 -4.4511723,5.671875 -0.5891432,0.723116 -1.0793604,1.30746 -1.4257812,1.699219 -0.077118,0.08721 -0.1141856,0.122641 -0.1757813,0.189453 -0.1045223,-0.03174 -0.175731,-0.05153 -0.3125,-0.09375 C 4.1575273,81.344652 3.3591309,81.093499 2.3476563,80.773437 0.32470686,80.133315 -2.5510337,79.21499 -6,78.109375 c -6.897933,-2.21123 -16.088705,-5.172563 -25.337891,-8.162109 -9.249185,-2.989547 -18.558658,-6.006964 -25.695312,-8.332032 -3.568327,-1.162533 -6.592617,-2.151374 -8.794922,-2.876953 -0.554964,-0.18284 -0.509826,-0.171504 -0.962891,-0.322265 0.46473,-0.08379 0.736889,-0.134934 1.292969,-0.234375 2.973353,-0.531711 7.212079,-1.279853 12.294922,-2.171875 10.165686,-1.784045 23.706744,-4.142884 37.257812,-6.492188 13.5510689,-2.349304 27.112795,-4.689847 37.31836,-6.4375 5.102782,-0.873826 9.365854,-1.599076 12.36914,-2.103516 C 34.97194,40.77001 35.836255,40.627177 36.613281,40.5 Z"
         id="path44" />
      <path
         style="color:#000000;font-variation-settings:normal;opacity:1;vector-effect:none;fill:#000000;fill-opacity:0.159253;stroke:none;stroke-width:0.25;stroke-linecap:butt;stroke-linejoin:miter;stroke-miterlimit:4;stroke-dasharray:none;stroke-dashoffset:0;stroke-opacity:1;-inkscape-stroke:none;stop-color:#000000;stop-opacity:1"
         d="m 35.472656,41.195312 c -0.600517,0.823077 -1.030767,1.439545 -2.152344,2.904297 l -4.033203,5.267578 -2.955078,0.560547 c -1.915451,0.362971 -10.772564,2.003257 -19.6484373,3.638672 -4.4417314,0.818402 -8.5014097,1.580357 -11.4687499,2.152344 -1.4836702,0.285993 -2.6937383,0.525216 -3.5468751,0.699219 -0.4265683,0.087 -0.7613675,0.157759 -1.0078125,0.21289 -0.1232224,0.02757 -0.2219195,0.05022 -0.3144531,0.07422 -0.046267,0.012 -0.089612,0.02227 -0.1542969,0.04297 -0.032343,0.01035 -0.06885,0.02169 -0.1347656,0.04883 -0.032958,0.01357 -0.072531,0.03162 -0.1347656,0.06445 -0.06223,0.03283 -0.296021,0.204324 -0.296875,0.205078 -4.27e-4,3.78e-4 -0.318119,0.394101 -0.318359,0.394531 -2.41e-4,4.31e-4 -0.181587,0.56397 -0.181641,0.564454 -5.4e-5,4.83e-4 0.03307,0.524853 0.0332,0.52539 1.31e-4,5.37e-4 0.136403,0.352926 0.136719,0.353516 3.16e-4,5.9e-4 0.09753,0.159521 0.140625,0.214844 0.0431,0.05532 0.08074,0.09778 0.115234,0.132812 0.06898,0.07006 0.122291,0.113199 0.166016,0.146484 0.174898,0.133143 0.233229,0.149713 0.2949217,0.179688 0.1233847,0.05995 0.2061699,0.08927 0.3105469,0.128906 0.2087541,0.07926 0.473878,0.171516 0.8164063,0.285156 0.6850564,0.227281 1.6641106,0.536252 2.8808594,0.910157 2.4334974,0.74781 5.80575663,1.751329 9.5410156,2.833984 3.7254532,1.079808 7.1382011,2.085379 9.6308591,2.832031 0.95217,0.285214 1.621605,0.490149 2.269532,0.689453 -0.19108,0.273652 -0.311718,0.456972 -0.552735,0.792969 -1.056467,1.472805 -2.556331,3.493598 -4.234375,5.691406 -1.6924504,2.216691 -3.268069,4.22 -4.4414061,5.660157 -0.5689309,0.698307 -1.034268,1.252147 -1.3710938,1.634765 -0.00415,-0.0013 -0.00559,-6.63e-4 -0.00977,-0.002 C 4.3062042,80.866769 3.5089381,80.616708 2.4980395,80.296829 0.47624224,79.657071 -2.3990157,78.738279 -5.8476636,77.632766 -12.744959,75.421741 -21.9347,72.462065 -31.183601,69.47261 c -9.2489,-2.989454 -18.557297,-6.00911 -25.693359,-8.333984 -3.19889,-1.042174 -5.761054,-1.881752 -7.884766,-2.580078 2.940987,-0.524969 6.830116,-1.211727 11.644532,-2.056641 10.165121,-1.783945 23.706998,-4.142927 37.257812,-6.492187 13.5508133,-2.349261 27.111403,-4.68799 37.316406,-6.435547 5.102502,-0.873779 9.366866,-1.601199 12.369141,-2.105469 0.705826,-0.118552 1.085783,-0.18034 1.646484,-0.273438 z"
         id="path45" />
      <path
         style="color:#000000;font-variation-settings:normal;opacity:1;vector-effect:none;fill:#000000;fill-opacity:0.159253;stroke:none;stroke-width:0.25;stroke-linecap:butt;stroke-linejoin:miter;stroke-miterlimit:4;stroke-dasharray:none;stroke-dashoffset:0;stroke-opacity:1;-inkscape-stroke:none;stop-color:#000000;stop-opacity:1"
         d="m 34.333984,41.892578 c -0.505685,0.676602 -0.67344,0.937659 -1.412109,1.902344 l -3.916016,5.117187 -2.765625,0.523438 c -1.909226,0.361791 -10.770906,2.003311 -19.646484,3.638672 -4.4428484,0.818607 -8.5033037,1.581922 -11.4726562,2.154297 -1.4846763,0.286187 -2.6963297,0.524549 -3.5527344,0.699218 -0.4282024,0.08733 -0.7652618,0.158399 -1.0175782,0.214844 -0.1261581,0.02822 -0.2293258,0.05149 -0.3320312,0.07813 -0.051353,0.01332 -0.099236,0.02503 -0.1796875,0.05078 -0.040226,0.01288 -0.085729,0.02898 -0.1718755,0.06445 -0.04307,0.01774 -0.09729,0.03856 -0.179687,0.08203 -0.0824,0.04347 -0.393678,0.272683 -0.394531,0.273437 -4.27e-4,3.78e-4 -0.423588,0.52496 -0.423828,0.525391 -2.41e-4,4.3e-4 -0.24018,0.753422 -0.240235,0.753906 -5.4e-5,4.84e-4 0.04479,0.698682 0.04492,0.699219 1.31e-4,5.37e-4 0.179372,0.470113 0.179688,0.470703 3.16e-4,5.9e-4 0.130205,0.21356 0.1875,0.287109 0.05729,0.07355 0.108536,0.129306 0.154296,0.175782 0.09152,0.09295 0.161151,0.147558 0.21875,0.191406 0.230398,0.175392 0.303293,0.195682 0.378907,0.232422 0.151227,0.07348 0.2404793,0.106258 0.3515622,0.148437 0.222166,0.08436 0.4900422,0.176258 0.8359375,0.291016 0.6917908,0.229515 1.6738736,0.539556 2.8925782,0.914062 2.4374091,0.749013 5.8114916,1.75268 9.5488281,2.835938 3.7242622,1.079463 7.136414,2.084061 9.626953,2.830078 0.67631,0.202582 1.081832,0.327614 1.609375,0.488281 -0.06474,0.09087 -0.08768,0.129014 -0.15625,0.22461 -1.052081,1.46669 -2.550994,3.48512 -4.226562,5.679687 C 8.585581,75.652685 7.0121378,77.653809 5.84375,79.087891 5.3629257,79.678055 5.006992,80.095685 4.6914062,80.460937 4.1621674,80.296633 3.5262895,80.098091 2.6484375,79.820312 0.62779241,79.180919 -2.2469829,78.261661 -5.6953125,77.15625 -12.591972,74.945428 -21.780681,71.985456 -31.029297,68.996094 c -9.248616,-2.989363 -18.557889,-6.00735 -25.693359,-8.332032 -2.4297,-0.791577 -4.151115,-1.356806 -5.988281,-1.958984 2.74906,-0.48847 5.677146,-1.008504 9.679687,-1.710937 10.164557,-1.783847 23.7053,-4.141019 37.255859,-6.490235 13.5505593,-2.349216 27.111964,-4.690039 37.316407,-6.4375 5.102221,-0.87373 9.365924,-1.599415 12.367187,-2.103515 0.182537,-0.03066 0.252668,-0.04131 0.425781,-0.07031 z"
         id="path46" />
      <path
         style="color:#000000;font-variation-settings:normal;opacity:1;vector-effect:none;fill:#000000;fill-opacity:0.159253;stroke:none;stroke-width:0.25;stroke-linecap:butt;stroke-linejoin:miter;stroke-miterlimit:4;stroke-dasharray:none;stroke-dashoffset:0;stroke-opacity:1;-inkscape-stroke:none;stop-color:#000000;stop-opacity:1"
         d="m 4.0019531,80.498047 c -0.071646,0.07935 -0.1196466,0.13105 -0.1621093,0.175781 0.016208,-0.04621 0.045655,-0.09807 0.1621093,-0.175781 z"
         id="path48" />
      <path
         style="color:#000000;font-variation-settings:normal;opacity:1;vector-effect:none;fill:#000000;fill-opacity:0.159253;stroke:none;stroke-width:0.25;stroke-linecap:butt;stroke-linejoin:miter;stroke-miterlimit:4;stroke-dasharray:none;stroke-dashoffset:0;stroke-opacity:1;-inkscape-stroke:none;stop-color:#000000;stop-opacity:1"
         d="m 33.193359,42.589844 c -0.297527,0.392187 -0.316335,0.443118 -0.667968,0.902343 l -3.800782,4.962891 -2.578125,0.490234 c -1.903,0.360612 -10.769249,2.001413 -19.6445309,3.636719 -4.4439653,0.818813 -8.5051977,1.583488 -11.4765625,2.15625 -1.4856824,0.286382 -2.696968,0.523883 -3.5566406,0.699219 -0.4298363,0.08767 -0.769156,0.159038 -1.0273438,0.216797 -0.1290938,0.02888 -0.234779,0.05275 -0.3476562,0.08203 -0.056439,0.01464 -0.110813,0.02975 -0.207031,0.06055 -0.04811,0.0154 -0.104559,0.03237 -0.210938,0.07617 -0.05319,0.0219 -0.118135,0.0494 -0.220703,0.103515 -0.102568,0.05411 -0.493287,0.33909 -0.494141,0.339844 -4.26e-4,3.78e-4 -0.527103,0.65582 -0.527343,0.65625 -2.4e-4,4.31e-4 -0.30268,0.940923 -0.302735,0.941406 -5.4e-5,4.84e-4 0.05651,0.872511 0.05664,0.873047 1.31e-4,5.37e-4 0.226246,0.589254 0.226562,0.589844 3.17e-4,5.9e-4 0.160929,0.265646 0.232422,0.357422 0.07149,0.09178 0.134377,0.160829 0.191407,0.21875 0.114059,0.115842 0.201963,0.185824 0.273437,0.240234 0.285897,0.217641 0.373356,0.2397 0.462891,0.283203 0.179069,0.08701 0.274789,0.121291 0.392578,0.166016 0.2355777,0.08945 0.5062061,0.182954 0.8554686,0.298828 0.698525,0.231749 1.6836365,0.542862 2.9042969,0.917969 2.4413208,0.750214 5.81722657,1.754031 9.5566406,2.837891 3.7230712,1.079117 7.1346279,2.082742 9.6230469,2.828125 0.393678,0.117922 0.590518,0.180902 0.935547,0.285156 -1.034467,1.434179 -2.390636,3.26692 -3.9628907,5.326172 C 8.1917376,75.346492 6.6204697,77.343477 5.4570312,78.771484 5.0652176,79.252397 4.806724,79.551946 4.5234375,79.884766 4.0287556,79.730474 3.5417978,79.57823 2.8007813,79.34375 c -2.01949298,-0.639029 -4.8957388,-1.556801 -8.34375,-2.662109 -6.8960223,-2.210618 -16.0856533,-5.172839 -25.3339843,-8.16211 -9.248331,-2.98927 -18.556529,-6.005589 -25.691406,-8.330078 -1.660564,-0.540999 -2.69498,-0.883102 -4.091797,-1.339844 2.420517,-0.428562 4.526136,-0.80333 7.716797,-1.363281 10.163992,-1.783747 23.703602,-4.141062 37.253906,-6.490234 13.550304,-2.349172 27.110572,-4.690136 37.314453,-6.4375 4.773201,-0.817388 8.610804,-1.470854 11.568359,-1.96875 z"
         id="path47" />
      <path
         style="fill:#ffffff"
         d="m 11.86537,58.778121 c 3.37094,-4.41507 6.02656,-8.11724 5.90139,-8.22703 -0.12517,-0.10979 -6.32963,-1.96828 -13.78769,-4.12997 -7.45806,-2.1617 -13.47072,-4.00938 -13.36146,-4.10596 0.10926,-0.0966 7.46147,-1.51381 16.33824,-3.14938 8.87677,-1.63558 17.72205,-3.27364 19.65618,-3.64015 l 3.5166,-0.66636 4.38194,-5.7227 c 3.49491,-4.56427 4.28109,-5.73827 3.88375,-5.79962 -0.52857,-0.0816 -108.572222,18.64957 -108.781812,18.85915 -0.0677,0.0677 0.10238,0.21056 0.37787,0.31754 2.25383,0.87522 74.952642,24.37313 75.297412,24.33783 0.24892,-0.0255 3.17683,-3.61921 6.57758,-8.07335 z"
         id="path2" />
    </g>
  </g>
</svg>
